<svg id="Default" xmlns="http://www.w3.org/2000/svg" xmlns:xlink="http://www.w3.org/1999/xlink" viewBox="0 0 500 300"><defs><style>.cls-1,.cls-4,.cls-5,.cls-6,.cls-7,.cls-8{fill:none;}.cls-2{clip-path:url(#clip-path);}.cls-3{fill:#fff;}.cls-4,.cls-5,.cls-6,.cls-7{stroke:#141b41;}.cls-4,.cls-5,.cls-6,.cls-8{stroke-linecap:round;stroke-linejoin:round;}.cls-4{stroke-width:0.38px;}.cls-5{stroke-width:2.5px;}.cls-6{stroke-width:5px;}.cls-7{stroke-miterlimit:10;stroke-width:0.5px;}.cls-8{stroke:#fff;}</style><clipPath id="clip-path"><rect class="cls-1" width="500" height="300"/></clipPath></defs><g class="cls-2"><polygon class="cls-3" points="170.76 59.08 218.07 82.64 218.07 37.65 170.76 59.08"/><polygon class="cls-4" points="170.76 59.08 218.07 82.64 218.07 37.65 170.76 59.08"/><polyline class="cls-3" points="218.07 59.56 218.07 213.91 170.76 213.91 170.76 59.56"/><polyline class="cls-4" points="218.07 59.56 218.07 213.91 170.76 213.91 170.76 59.56"/><polygon class="cls-3" points="275.69 59.08 218.07 37.65 218.07 82.64 275.69 59.08"/><polygon class="cls-4" points="275.69 59.08 218.07 37.65 218.07 82.64 275.69 59.08"/><polyline class="cls-3" points="275.69 59.56 275.69 213.91 218.07 213.91 218.07 59.56"/><polyline class="cls-4" points="275.69 59.56 275.69 213.91 218.07 213.91 218.07 59.56"/><line class="cls-5" x1="177.92" y1="66.93" x2="210.92" y2="52.2"/><line class="cls-5" x1="177.92" y1="86.19" x2="210.92" y2="71.46"/><line class="cls-5" x1="177.92" y1="105.46" x2="210.92" y2="90.72"/><line class="cls-5" x1="177.92" y1="124.72" x2="210.92" y2="109.98"/><line class="cls-5" x1="177.92" y1="143.98" x2="210.92" y2="129.25"/><line class="cls-5" x1="177.92" y1="163.24" x2="210.92" y2="148.51"/><line class="cls-5" x1="178.78" y1="182.5" x2="211.78" y2="167.77"/><line class="cls-5" x1="179.35" y1="201.77" x2="212.35" y2="187.03"/><line class="cls-6" x1="230.3" y1="52.94" x2="267.1" y2="66.63"/><line class="cls-6" x1="230.3" y1="71.98" x2="267.1" y2="85.67"/><line class="cls-6" x1="230.3" y1="91.25" x2="267.1" y2="104.93"/><line class="cls-6" x1="230.3" y1="127.59" x2="267.1" y2="141.28"/><line class="cls-6" x1="230.3" y1="146.37" x2="267.1" y2="160.05"/><line class="cls-6" x1="230.3" y1="165.42" x2="267.1" y2="179.1"/><line class="cls-6" x1="230.3" y1="186.46" x2="267.1" y2="200.14"/><line class="cls-6" x1="230.3" y1="108.82" x2="267.1" y2="122.51"/><polygon class="cls-3" points="264.98 105.96 297.96 122.38 297.96 91.01 264.98 105.96"/><polygon class="cls-7" points="264.98 105.96 297.96 122.38 297.96 91.01 264.98 105.96"/><polyline class="cls-3" points="297.96 106.3 297.96 213.91 264.98 213.91 264.98 106.3"/><polyline class="cls-7" points="297.96 106.3 297.96 213.91 264.98 213.91 264.98 106.3"/><polygon class="cls-3" points="338.14 105.96 297.96 91.01 297.96 122.38 338.14 105.96"/><polygon class="cls-7" points="338.14 105.96 297.96 91.01 297.96 122.38 338.14 105.96"/><polyline class="cls-3" points="338.14 106.3 338.14 213.91 297.96 213.91 297.96 106.3"/><polyline class="cls-7" points="338.14 106.3 338.14 213.91 297.96 213.91 297.96 106.3"/><line class="cls-5" x1="269.82" y1="116.67" x2="293.37" y2="106.16"/><line class="cls-5" x1="269.77" y1="137.09" x2="293.42" y2="126.53"/><line class="cls-5" x1="269.43" y1="155.03" x2="293.76" y2="144.16"/><line class="cls-5" x1="269.96" y1="173.39" x2="293.23" y2="163"/><line class="cls-5" x1="270.64" y1="194.49" x2="294.42" y2="183.87"/><line x1="305.27" y1="105.56" x2="330.83" y2="115.07"/><line class="cls-6" x1="305.27" y1="105.56" x2="330.83" y2="115.07"/><line x1="305.27" y1="124.93" x2="330.83" y2="134.44"/><line class="cls-6" x1="305.27" y1="124.93" x2="330.83" y2="134.44"/><line x1="305.27" y1="143.7" x2="330.83" y2="153.21"/><line class="cls-6" x1="305.27" y1="143.7" x2="330.83" y2="153.21"/><line x1="305.27" y1="162.75" x2="330.83" y2="172.26"/><line class="cls-6" x1="305.27" y1="162.75" x2="330.83" y2="172.26"/><line x1="305.27" y1="184.42" x2="330.83" y2="193.93"/><line class="cls-6" x1="305.27" y1="184.42" x2="330.83" y2="193.93"/><g class="cls-2"><path class="cls-8" d="M303.75,81.29a9,9,0,0,0-9-9"/><path class="cls-8" d="M294.76,72.3a9,9,0,0,0,9-9"/><path class="cls-8" d="M303.75,63.3a9,9,0,0,0,9,9"/><path class="cls-8" d="M312.75,72.41a9,9,0,0,0-9,9"/><path class="cls-8" d="M220.44,31.53a9,9,0,0,0-9-9"/><path class="cls-8" d="M211.45,22.53a9,9,0,0,0,9-9"/><path class="cls-8" d="M220.44,13.54a9,9,0,0,0,9,9"/><path class="cls-8" d="M229.44,22.65a9,9,0,0,0-9,9"/><path class="cls-8" d="M147.41,90.55a9,9,0,0,0-9-9"/><path class="cls-8" d="M138.42,81.55a9,9,0,0,0,9-9"/><path class="cls-8" d="M147.41,72.56a9,9,0,0,0,9,9"/><path class="cls-8" d="M156.41,81.66a9,9,0,0,0-9,9"/><path class="cls-8" d="M150.79,197.92a9,9,0,0,0-9-9"/><path class="cls-8" d="M141.8,188.93a9,9,0,0,0,9-9"/><path class="cls-8" d="M150.79,179.93a9,9,0,0,0,9,9"/><path class="cls-8" d="M159.78,189a9,9,0,0,0-9,9"/><path class="cls-8" d="M352.59,145.09a9,9,0,0,0-9-9"/><path class="cls-8" d="M343.59,136.1a9,9,0,0,0,9-9"/><path class="cls-8" d="M352.59,127.1a9,9,0,0,0,9,9"/><path class="cls-8" d="M361.58,136.21a9,9,0,0,0-9,9"/></g></g></svg>